<svg xmlns="http://www.w3.org/2000/svg" viewBox="0 0 82.46 82.46"><defs><style>.cls-1{fill:#fff;stroke:#b5b5b5;stroke-linecap:round;stroke-linejoin:round;stroke-width:1.3px;}.cls-2{fill:none;}</style></defs><g id="레이어_2" data-name="레이어 2"><g id="Layer_1" data-name="Layer 1"><path class="cls-1" d="M54.67,37.65l25,7.57s-3.55,8.42-17.82,8.42-19.62-3.86-19.62-3.86Z"/><path class="cls-1" d="M54.67,37.65c1.1,2.51-4.08,7.35-12.42,12.13a98.61,98.61,0,0,1-9.71,4.87A103,103,0,0,1,22.4,58.5c-9.17,2.9-16.24,3.43-17.34.92A27.09,27.09,0,1,1,54.67,37.65Z"/><path class="cls-1" d="M42.25,49.78a98.61,98.61,0,0,1-9.71,4.87A103,103,0,0,1,22.4,58.5c-7.23-17-8.78-32.42-3.43-34.77S34.63,33,42.25,49.78Z"/><ellipse class="cls-1" cx="19.63" cy="25.21" rx="4.57" ry="1.71" transform="translate(-8.22 9.55) rotate(-22.75)"/><rect class="cls-2" width="82.46" height="82.46"/></g></g></svg>