<svg xmlns="http://www.w3.org/2000/svg" viewBox="0 0 82.46 82.46"><defs><style>.cls-1{fill:none;}.cls-2{fill:#fff;stroke:#b5b5b5;stroke-linecap:round;stroke-linejoin:round;stroke-width:1.3px;}</style></defs><g id="레이어_2" data-name="레이어 2"><g id="Layer_1" data-name="Layer 1"><rect class="cls-1" width="82.46" height="82.46"/><path class="cls-2" d="M35.05,10.22H47.41V13.4l-1.76,4L43,20.44s-5.16,0-5.16-.1-3-4.07-3.09-4.2-1.06-2.92-1.06-2.92Z"/><path class="cls-2" d="M16.43,25.73c-.76,9.24-.88,27.27-.89,38a8.55,8.55,0,0,0,8.56,8.55H41.23V16.59L29.62,14.16s-10.3,1.12-12.36,6.18a14.29,14.29,0,0,0-.62,3.21Z"/><path class="cls-2" d="M52.84,14.16s10.31,1.12,12.37,6.18c1.5,3.68,1.71,29.59,1.71,43.35a8.55,8.55,0,0,1-8.56,8.55H41.23V16.59Z"/><polygon class="cls-2" points="35.05 10.22 41.23 16.59 36.17 20.34 29.62 14.16 35.05 10.22"/><polygon class="cls-2" points="47.41 10.22 41.23 16.59 46.29 20.34 52.84 14.16 47.41 10.22"/><path class="cls-2" d="M23.55,30.8h11a0,0,0,0,1,0,0v7.72a3.25,3.25,0,0,1-3.25,3.25H26.8a3.25,3.25,0,0,1-3.25-3.25V30.8a0,0,0,0,1,0,0Z"/></g></g></svg>