<?xml version="1.0" encoding="utf-8"?>
<!-- Generator: Adobe Illustrator 27.0.1, SVG Export Plug-In . SVG Version: 6.00 Build 0)  -->
<svg version="1.1" id="Layer_1" xmlns="http://www.w3.org/2000/svg" xmlns:xlink="http://www.w3.org/1999/xlink" x="0px" y="0px"
	 viewBox="0 0 257.6 110.1" style="enable-background:new 0 0 257.6 110.1;" xml:space="preserve">
<style type="text/css">
	.st0{fill:#5364AB;}
</style>
<g id="Layer_2_00000116208855788902333790000004058688246082614423_">
	<g id="Layer_1-2">
		<rect x="198.8" y="1.2" class="st0" width="9.7" height="49.7"/>
		<path class="st0" d="M242.7,21.4c-2.7-0.5-5.3-1.2-7.9-2c-1.5-0.4-2.8-1.1-4-2c-0.9-0.8-1.3-1.9-1.3-3c0-1.5,0.8-2.9,2.1-3.7
			c1.7-1,3.7-1.5,5.8-1.4c2.2-0.1,4.4,0.5,6.2,1.8c1.6,1.3,2.6,3.1,2.8,5.1h11.2c-0.1-3-1.1-5.9-2.8-8.4c-1.8-2.5-4.1-4.5-6.9-5.8
			c-3-1.4-6.3-2.1-9.7-2c-3.4-0.1-6.8,0.5-10,1.7c-2.7,1-5.2,2.7-7,5c-1.7,2.2-2.6,4.9-2.6,7.6c0,4.5,1.3,8,4,10.5
			c2.7,2.5,6.7,4.2,12.2,5.3c2.4,0.4,4.7,1,7,1.8c1.4,0.4,2.6,1.2,3.7,2.2c1.7,2,1.5,5.1-0.5,6.9c-0.1,0.1-0.3,0.2-0.5,0.3
			c-1.6,1.1-3.5,1.6-5.5,1.5c-2.7,0.1-5.3-0.6-7.4-2.2c-1.9-1.4-3.1-3.5-3.4-5.8h-11c0.1,3.3,1.1,6.4,3,9.1c1.9,2.6,4.5,4.7,7.5,6
			c3.4,1.5,7,2.2,10.6,2.1c3.4,0.1,6.7-0.6,9.9-1.8c2.8-1.1,5.2-3,7-5.3c1.7-2.3,2.6-5.2,2.6-8.1c0.1-3.6-1.1-7.1-3.4-9.8
			C251.9,24.4,248,22.5,242.7,21.4z"/>
		<path class="st0" d="M126.2,1.2V28C119.1,17.5,110,8.4,99.4,1.2h-9.7v49.7h9.7V14.7c11.9,9.6,21.1,22,26.7,36.2h9.7V1.2H126.2z"/>
		<polygon class="st0" points="162.2,1.2 162.2,1.2 162.2,1.2 		"/>
		<path class="st0" d="M180.8,1.2V28C173.6,17.5,164.5,8.4,154,1.2h-9.7v49.7h9.7V14.7c11.9,9.6,21.1,22,26.7,36.2h9.7V1.2H180.8z"
			/>
		<polygon class="st0" points="81.3,12.1 81.3,1.2 44.8,1.2 44.8,50.9 81.3,50.9 81.3,40.1 55.7,40.1 55.7,31.9 79.1,31.9 
			79.1,21.1 55.7,21.1 55.7,12.1 		"/>
		<polygon class="st0" points="0,1.2 0,12.1 12.8,12.1 12.8,50.9 23.7,50.9 23.7,12.1 36.5,12.1 36.5,1.2 		"/>
		<rect x="150" y="59.2" class="st0" width="9.7" height="49.7"/>
		<rect x="224.1" y="99.2" class="st0" width="33.5" height="9.7"/>
		<polygon class="st0" points="38.9,70 38.9,59.2 2.3,59.2 2.3,108.8 12,108.8 12,89.9 36.6,89.9 36.6,79 12,79 12,70 		"/>
		<path class="st0" d="M96.9,84c0-14.4-11.7-26.1-26.1-26.1S44.8,69.6,44.8,84s11.7,26.1,26.1,26.1S96.9,98.4,96.9,84
			C96.9,84,96.9,84,96.9,84z M70.8,99.3c-8.4,0-15.3-6.8-15.3-15.2s6.8-15.3,15.2-15.3S86.1,75.6,86.1,84c0,0,0,0,0,0
			C86.1,92.4,79.2,99.2,70.8,99.3z"/>
		<polygon class="st0" points="114.9,98 114.9,59.2 105.2,59.2 105.2,108.8 105.2,108.8 141.8,108.8 141.8,98 		"/>
		<path class="st0" d="M194.1,57.9C179.6,57.9,168,69.6,168,84s11.7,26.1,26.1,26.1c14.4,0,26.1-11.7,26.1-26.1c0,0,0,0,0,0
			C220.1,69.6,208.5,57.9,194.1,57.9C194.1,57.9,194.1,57.9,194.1,57.9z M194.1,99.3c-8.4,0-15.3-6.8-15.3-15.2
			c0-8.4,6.8-15.3,15.2-15.3c8.4,0,15.3,6.8,15.3,15.2c0,0,0,0,0,0C209.3,92.4,202.5,99.2,194.1,99.3z"/>
	</g>
</g>
</svg>
