<?xml version="1.0" encoding="utf-8"?>
<!-- Generator: Adobe Illustrator 25.3.0, SVG Export Plug-In . SVG Version: 6.00 Build 0)  -->
<svg version="1.1" id="레이어_1" xmlns="http://www.w3.org/2000/svg" xmlns:xlink="http://www.w3.org/1999/xlink" x="0px"
	 y="0px" viewBox="0 0 25 25" style="enable-background:new 0 0 25 25;" xml:space="preserve">
<style type="text/css">
	.st0{fill:#EEEEEE;}
	.st1{clip-path:url(#SVGID_2_);}
	.st2{enable-background:new    ;}
	.st3{fill:#D8D7D7;}
</style>
<g id="프로필이미지" transform="translate(-867 -632.65)">
	<g id="사각형_591_복사_12-2">
		<circle id="사각형_591_복사_12-3" class="st0" cx="879.5" cy="645.2" r="12.5"/>
		<g>
			<defs>
				<circle id="SVGID_1_" cx="879.5" cy="645.2" r="12.5"/>
			</defs>
			<clipPath id="SVGID_2_">
				<use xlink:href="#SVGID_1_"  style="overflow:visible;"/>
			</clipPath>
			<g id="Clip" class="st1">
				<g class="st2">
					<path class="st3" d="M881.6,651.6c1.9,0.1,3.5,0.7,4.8,2c1.3,1.3,1.9,2.9,2,4.8c0,0.4-0.1,0.7-0.4,1s-0.6,0.4-1,0.4h-14.7
						c-0.4,0-0.7-0.1-1-0.4c-0.3-0.3-0.4-0.6-0.4-1c0.1-1.9,0.7-3.5,2-4.8c1.3-1.3,2.9-1.9,4.8-2H881.6z M879.6,649.7
						c-1.4,0-2.6-0.5-3.5-1.4c-0.9-1-1.4-2.1-1.4-3.5c0-1.4,0.5-2.6,1.4-3.5c1-0.9,2.1-1.4,3.5-1.4c1.4,0,2.6,0.5,3.5,1.4
						c0.9,1,1.4,2.1,1.4,3.5c0,1.4-0.5,2.6-1.4,3.5C882.2,649.2,881,649.7,879.6,649.7z"/>
				</g>
			</g>
		</g>
	</g>
</g>
</svg>
