<svg xmlns="http://www.w3.org/2000/svg" viewBox="0 0 92.12 12.55"><defs><style>.cls-1{fill:#5166bf;}</style></defs><g id="레이어_2" data-name="레이어 2"><g id="레이어_1-2" data-name="레이어 1"><path class="cls-1" d="M87.87,3.68l3.6.51a.77.77,0,0,1,.61.54.76.76,0,0,1-.2.81L89.29,8l.61,3.58a.75.75,0,0,1-.29.76.79.79,0,0,1-.84,0l-3.21-1.64-3.21,1.67a.75.75,0,0,1-.83,0,.72.72,0,0,1-.29-.76l.61-3.58-2.6-2.52a.78.78,0,0,1-.2-.81.75.75,0,0,1,.62-.52l3.6-.53L84.85.44A.82.82,0,0,1,85.56,0a.78.78,0,0,1,.71.44Z"/><path class="cls-1" d="M67.87,3.68l3.6.51a.77.77,0,0,1,.61.54.76.76,0,0,1-.2.81L69.29,8l.61,3.58a.75.75,0,0,1-.29.76.79.79,0,0,1-.84,0l-3.21-1.64-3.21,1.67a.75.75,0,0,1-.83,0,.72.72,0,0,1-.29-.76l.61-3.58-2.6-2.52a.78.78,0,0,1-.2-.81.75.75,0,0,1,.62-.52l3.6-.53L64.85.44A.82.82,0,0,1,65.56,0a.78.78,0,0,1,.71.44Z"/><path class="cls-1" d="M48.87,3.68l3.6.51a.77.77,0,0,1,.61.54.76.76,0,0,1-.2.81L50.29,8l.61,3.58a.75.75,0,0,1-.29.76.79.79,0,0,1-.84,0l-3.21-1.64-3.21,1.67a.75.75,0,0,1-.83,0,.72.72,0,0,1-.29-.76l.61-3.58-2.6-2.52a.78.78,0,0,1-.2-.81.75.75,0,0,1,.62-.52l3.6-.53L45.85.44A.82.82,0,0,1,46.56,0a.78.78,0,0,1,.71.44Z"/><path class="cls-1" d="M28.87,3.68l3.6.51a.77.77,0,0,1,.61.54.76.76,0,0,1-.2.81L30.29,8l.61,3.58a.75.75,0,0,1-.29.76.79.79,0,0,1-.84,0l-3.21-1.64-3.21,1.67a.75.75,0,0,1-.83,0,.72.72,0,0,1-.29-.76l.61-3.58-2.6-2.52a.78.78,0,0,1-.2-.81.75.75,0,0,1,.62-.52l3.6-.53L25.85.44A.82.82,0,0,1,26.56,0a.78.78,0,0,1,.71.44Z"/><path class="cls-1" d="M8.87,3.68l3.6.51a.77.77,0,0,1,.61.54.76.76,0,0,1-.2.81L10.29,8l.61,3.58a.75.75,0,0,1-.29.76.79.79,0,0,1-.84,0L6.56,10.78,3.35,12.45a.75.75,0,0,1-.83,0,.72.72,0,0,1-.29-.76l.61-3.58L.24,5.54A.78.78,0,0,1,0,4.73a.75.75,0,0,1,.62-.52l3.6-.53L5.85.44A.82.82,0,0,1,6.56,0a.78.78,0,0,1,.71.44Z"/></g></g></svg>