<svg xmlns="http://www.w3.org/2000/svg" xmlns:xlink="http://www.w3.org/1999/xlink" width="40.542" height="34.75" viewBox="0 0 40.542 34.75">
  <defs>
    <clipPath id="clip-path">
      <rect id="사각형_390" data-name="사각형 390" width="40.542" height="34.75" transform="translate(0 0)" fill="none"/>
    </clipPath>
  </defs>
  <g id="Vector_Smart_Object" data-name="Vector Smart Object" transform="translate(-2083.729 -7629.625)">
    <g id="Vector_Smart_Object-2" data-name="Vector Smart Object" transform="translate(2083.729 7629.625)">
      <g id="그룹_1005" data-name="그룹 1005">
        <g id="그룹_1004" data-name="그룹 1004" clip-path="url(#clip-path)">
          <path id="패스_1246" data-name="패스 1246" d="M29.565,4.88a3.423,3.423,0,0,0-3.343-2.724H4.385a3.416,3.416,0,0,0-3.412,3.4V30.38a3.417,3.417,0,0,0,3.412,3.4H26.221a3.417,3.417,0,0,0,3.411-3.4V12.718" fill="none" stroke="#2b2b2b" stroke-linecap="round" stroke-linejoin="round" stroke-width="1.941"/>
          <path id="패스_1247" data-name="패스 1247" d="M37.823,3.857,36.074.969,29.565,4.881l-2.41,1.448-8.918,5.36-4.5,6.64,7.991-.863,7.9-4.748,1.018-.611,8.919-5.36Z" fill="none" stroke="#000" stroke-linecap="round" stroke-linejoin="round" stroke-width="1.941"/>
        </g>
      </g>
    </g>
    <path id="Color_Overlay" data-name="Color Overlay" d="M2088.115,7663.407a3.417,3.417,0,0,1-3.414-3.4v-24.821a3.417,3.417,0,0,1,3.414-3.4h21.837a3.421,3.421,0,0,1,3.343,2.725l6.508-3.912,1.75,2.887,1.746,2.891-8.918,5.358-1.017.612,0,0V7660a3.416,3.416,0,0,1-3.41,3.4Z" fill="none"/>
  </g>
</svg>
