<svg xmlns="http://www.w3.org/2000/svg" viewBox="0 0 82.46 82.46"><defs><style>.cls-1{fill:none;}.cls-2{fill:#fff;stroke:#b5b5b5;stroke-linecap:round;stroke-linejoin:round;stroke-width:1.3px;}</style></defs><g id="레이어_2" data-name="레이어 2"><g id="Layer_1" data-name="Layer 1"><rect class="cls-1" width="82.46" height="82.46"/><path class="cls-2" d="M21.22,31.56A10.86,10.86,0,0,1,23,23.64a10.87,10.87,0,0,1,6.33-5.09"/><path class="cls-2" d="M24.17,33A3.88,3.88,0,0,0,25,34l-.48.89a4.49,4.49,0,0,1-2.66-1.08,2.41,2.41,0,0,1-.8-1.2,1.27,1.27,0,0,1,.41-1.32,1.41,1.41,0,0,1,1.67.18A5.08,5.08,0,0,1,24.17,33Z"/><path class="cls-2" d="M33.78,20c-.2.27-.4.54-.59.82a3.87,3.87,0,0,0-1.31-.26,4.86,4.86,0,0,1-1.78-.29,1.43,1.43,0,0,1-.9-1.41,1.28,1.28,0,0,1,1-1,2.38,2.38,0,0,1,1.43.19A4.39,4.39,0,0,1,33.78,20Z"/><path class="cls-2" d="M70.75,11.14l1,1.17a18.38,18.38,0,0,1-2.07,25.47C61.32,44.93,54.07,49.71,44.25,57.5,38.12,62.36,26,74.91,26,74.91A12.09,12.09,0,0,1,7.62,59.82S18.93,43.6,21.47,40c.2-.28,4.85-8.76,5-9.06C33,18.13,40.25,11.29,44.58,8.44A21.94,21.94,0,0,1,58.44,4.83,18,18,0,0,1,70.75,11.14Z"/><path class="cls-2" d="M29.87,25.09s2-1,2.71.79-2.19,30.39,7.19,35"/><path class="cls-2" d="M39.46,61.48s-1.31,5.26-.61,5.26,2.49.08,2.49.08S40.6,60.17,39.46,61.48Z"/><path class="cls-2" d="M33,26S42.22,10.9,52.64,9.32s17.43,6,19.27,13.58A19.26,19.26,0,0,1,67,40"/></g></g></svg>