<svg xmlns="http://www.w3.org/2000/svg" viewBox="0 0 82.46 82.46"><defs><style>.cls-1{fill:none;}.cls-2{fill:#fff;stroke:#b5b5b5;stroke-linecap:round;stroke-linejoin:round;stroke-width:1.3px;}</style></defs><g id="레이어_2" data-name="레이어 2"><g id="Layer_1" data-name="Layer 1"><rect class="cls-1" width="82.46" height="82.46"/><path class="cls-2" d="M35.05,10.22H47.41V13.4l-1.76,4L43,20.44s-5.16,0-5.16-.1-3-4.07-3.09-4.2-1.06-2.92-1.06-2.92Z"/><path class="cls-2" d="M65.21,20.34c-2.06-5.06-12.37-6.18-12.37-6.18L41.23,16.59,29.62,14.16s-10.3,1.12-12.36,6.18a14.29,14.29,0,0,0-.62,3.21l-.21,2.18c-.76,9.24-.88,27.27-.89,38a8.55,8.55,0,0,0,8.56,8.55H58.36a8.55,8.55,0,0,0,8.56-8.55C66.92,49.93,66.71,24,65.21,20.34Z"/><path class="cls-2" d="M29.62,14.16s6.07,9.8,11.61,2.43l-6.18-6.37Z"/><path class="cls-2" d="M52.84,14.16S46.77,24,41.23,16.59l6.18-6.37Z"/><circle class="cls-2" cx="41.35" cy="25.88" r="1.7"/><circle class="cls-2" cx="41.35" cy="36.27" r="1.7"/><circle class="cls-2" cx="41.35" cy="46.66" r="1.7"/></g></g></svg>