<svg xmlns="http://www.w3.org/2000/svg" viewBox="0 0 82.46 82.46"><defs><style>.cls-1,.cls-2{fill:none;}.cls-2,.cls-3{stroke:#b5b5b5;stroke-linecap:round;stroke-linejoin:round;stroke-width:1.3px;}.cls-3{fill:#fff;}</style></defs><g id="레이어_2" data-name="레이어 2"><g id="Layer_1" data-name="Layer 1"><rect class="cls-1" width="82.46" height="82.46"/><path class="cls-2" d="M59.84,11.33A2.84,2.84,0,0,1,57,14.17H46.84A2.85,2.85,0,0,1,44,11.33h0a2.85,2.85,0,0,1,2.85-2.84H57a2.84,2.84,0,0,1,2.84,2.84Z"/><path class="cls-3" d="M31.26,25.7V69.35c0,2.56,6,4.64,14.3,4.64s14.29-2.08,14.29-4.64V25.7"/><path class="cls-3" d="M54,17H37.11L31.26,25.7V69.35c0,2.56,6,4.64,14.3,4.64s14.29-2.08,14.29-4.64V25.7Z"/><rect class="cls-3" x="37.2" y="11.33" width="16.81" height="5.69"/><path class="cls-3" d="M51.92,5.64H39.28A2.09,2.09,0,0,0,37.2,7.73v3.6H54V7.73A2.1,2.1,0,0,0,51.92,5.64Z"/><path class="cls-3" d="M24.29,76.82A12.44,12.44,0,1,1,36.74,64.38,12.43,12.43,0,0,1,24.29,76.82Z"/><path class="cls-3" d="M15.06,56.84a7.25,7.25,0,0,1,6.43,6.28c.87,4.8,6.94,6.5,10.7,2,4.2-5-3.37-12.33-3.37-12.33"/><line class="cls-3" x1="56.14" y1="30.78" x2="59.54" y2="30.78"/><line class="cls-3" x1="56.14" y1="36.16" x2="59.54" y2="36.16"/><line class="cls-3" x1="56.14" y1="41.55" x2="59.54" y2="41.55"/><line class="cls-3" x1="56.14" y1="46.93" x2="59.54" y2="46.93"/><line class="cls-3" x1="56.14" y1="52.32" x2="59.54" y2="52.32"/><line class="cls-3" x1="56.14" y1="57.71" x2="59.54" y2="57.71"/></g></g></svg>