<svg xmlns="http://www.w3.org/2000/svg" viewBox="0 0 82.46 82.46"><defs><style>.cls-1{fill:none;}.cls-2{fill:#fff;stroke:#b5b5b5;stroke-linecap:round;stroke-linejoin:round;stroke-width:1.3px;}</style></defs><g id="레이어_2" data-name="레이어 2"><g id="Layer_1" data-name="Layer 1"><rect class="cls-1" width="82.46" height="82.46"/><path class="cls-2" d="M50.7,32a13.56,13.56,0,0,1-1.56,0A8.65,8.65,0,0,1,47,31.49c-2.82-1-5.35-2.69-8.06-4S33.71,24.65,30.76,24a13.66,13.66,0,0,0-3.5-.46c.15-.88-.8-2.49,0-3.48.44-.54,1-.93,1.44-1.5s.6-2.46,1.67-1.25c1.93,2.17,6.45,7.25,10.92,10.16,0,0,4.24,2.62,5.55,3.2A16,16,0,0,0,50.7,32Z"/><path class="cls-2" d="M67,37.73a7.31,7.31,0,0,1-.35,1.06,1.11,1.11,0,0,0-.3-.12,6.81,6.81,0,0,0-1.86,0,16.1,16.1,0,0,0-2,.22,40.08,40.08,0,0,0-5.6,1.46c-.73.23-1.47.51-2.18.77s-.92,1-1.46,1.44a3.14,3.14,0,0,1-1.66.61,11.71,11.71,0,0,1-3.39.16,9,9,0,0,1-3.05-1.12,20.22,20.22,0,0,0-3.37-1.65,8.88,8.88,0,0,0-5.3.11,13.27,13.27,0,0,0-2.82,1.28l-.41.26a30.32,30.32,0,0,0-4.46-1.49,42.91,42.91,0,0,0-8.62-1.45c-2.26-.11-4.54.07-6.79-.25-1.93-.28-3.8-.93-5.72-1.32A2.63,2.63,0,0,0,6,37.77a.93.93,0,0,0-.41.37c0-.13-.09-.27-.13-.41a7.77,7.77,0,0,1-.16-1.14,24.74,24.74,0,0,1,.14-5.77A24.33,24.33,0,0,1,8,22.76a1.55,1.55,0,0,1,.47-.57,1.23,1.23,0,0,1,1.44.35c1.07,1.11,1.78,2.52,2.94,3.58a6.12,6.12,0,0,0,6.35,1.09A29.36,29.36,0,0,0,22.73,25a10.41,10.41,0,0,1,3.88-1.4c.21,0,.43-.05.65-.06a13.66,13.66,0,0,1,3.5.46c2.95.68,5.49,2.28,8.19,3.55s5.24,2.94,8.06,4a8.65,8.65,0,0,0,2.13.54,13.56,13.56,0,0,0,1.56,0,5.07,5.07,0,0,1,.87,0,10.06,10.06,0,0,1,1.92.71,11,11,0,0,0,2.91.61l.86.12.43.06.41.05,2.65.34c.63.09,1.25.17,1.87.27s1,.11,1.57.17a4.09,4.09,0,0,1,1,.24A3.11,3.11,0,0,1,67,37.73Z"/><path class="cls-2" d="M66.72,42.49a4.4,4.4,0,0,1-2.36,2.15,20,20,0,0,1-3.57,1.44A54.17,54.17,0,0,1,47,48.22c-3.07.12-6.14.08-9.21,0-.76,0-1.55,0-2.3-.06a6,6,0,0,1-1.8-.67A12.16,12.16,0,0,0,29.79,46a10.41,10.41,0,0,0-3.89.59,40.15,40.15,0,0,1-9.26,1.68,20.63,20.63,0,0,1-5.08-.39c-1.38-.29-3.35-.72-4.42-1.69a9.57,9.57,0,0,1-1.7-2.06A2.36,2.36,0,0,1,5,43c0-.57,0-1.14,0-1.7A7.56,7.56,0,0,1,5.29,39a3.36,3.36,0,0,1,.33-.81A.93.93,0,0,1,6,37.77a2.63,2.63,0,0,1,1.64-.08c1.92.39,3.79,1,5.72,1.32,2.25.32,4.53.14,6.79.25a42.91,42.91,0,0,1,8.62,1.45,30.32,30.32,0,0,1,4.46,1.49l.41-.26a13.27,13.27,0,0,1,2.82-1.28,8.88,8.88,0,0,1,5.3-.11,20.22,20.22,0,0,1,3.37,1.65,9,9,0,0,0,3.05,1.12,11.71,11.71,0,0,0,3.39-.16,3.14,3.14,0,0,0,1.66-.61c.54-.48.75-1.18,1.46-1.44s1.45-.54,2.18-.77a40.08,40.08,0,0,1,5.6-1.46,16.1,16.1,0,0,1,2-.22,6.81,6.81,0,0,1,1.86,0,1.11,1.11,0,0,1,.3.12.52.52,0,0,1,.11.1c.26.29.19,1.06.27,1.43A3.86,3.86,0,0,1,66.72,42.49Z"/><path class="cls-2" d="M34.84,21.45s-1.56.12-3.34,3.34"/><path class="cls-2" d="M38.57,24.21s-1.57.12-3.34,3.34"/><path class="cls-2" d="M42.39,27.16s-1.57.12-3.34,3.34"/><path class="cls-2" d="M46.16,29.7s-1.57.12-3.34,3.34"/><path class="cls-2" d="M61.13,49.29a10.16,10.16,0,0,1-1.56,0,8.21,8.21,0,0,1-2.13-.53c-2.82-1-5.35-2.69-8-4s-5.24-2.87-8.2-3.56a13.54,13.54,0,0,0-3.5-.45c.16-.88-.79-2.49,0-3.48.44-.54,1-.93,1.43-1.51s.6-2.45,1.68-1.24c1.92,2.17,6.45,7.24,10.92,10.16,0,0,4.23,2.62,5.54,3.2A15.57,15.57,0,0,0,61.13,49.29Z"/><path class="cls-2" d="M77.4,55a7.74,7.74,0,0,1-.35,1.06,1,1,0,0,0-.3-.12,6.81,6.81,0,0,0-1.86,0,16.32,16.32,0,0,0-2,.22,40.08,40.08,0,0,0-5.6,1.46c-.73.23-1.46.51-2.17.77s-.93,1-1.47,1.44a3.07,3.07,0,0,1-1.65.61,11.78,11.78,0,0,1-3.4.16,9.3,9.3,0,0,1-3-1.12,20.71,20.71,0,0,0-3.38-1.65,8.85,8.85,0,0,0-5.29.11,12.87,12.87,0,0,0-2.83,1.28c-.14.08-.27.17-.4.26A31.72,31.72,0,0,0,39.23,58a43.49,43.49,0,0,0-8.62-1.44c-2.26-.11-4.54.07-6.78-.25C21.89,56,20,55.37,18.1,55a2.7,2.7,0,0,0-1.64.07,1.08,1.08,0,0,0-.41.38L15.93,55a6.63,6.63,0,0,1-.17-1.14,25.88,25.88,0,0,1,.14-5.77,24.27,24.27,0,0,1,2.56-8.06,1.44,1.44,0,0,1,.46-.57,1.21,1.21,0,0,1,1.44.35c1.08,1.11,1.78,2.52,2.94,3.57a6.13,6.13,0,0,0,6.35,1.1,29.48,29.48,0,0,0,3.52-2.24,10.35,10.35,0,0,1,3.88-1.4,4.48,4.48,0,0,1,.64-.06,13.54,13.54,0,0,1,3.5.45c3,.69,5.5,2.28,8.2,3.56s5.23,2.93,8,4a8.21,8.21,0,0,0,2.13.53,10.16,10.16,0,0,0,1.56,0,5,5,0,0,1,.87.05,10.06,10.06,0,0,1,1.92.71,11.5,11.5,0,0,0,2.92.61l.86.11.43.07s.4,0,.4,0l2.66.34c.62.08,1.25.17,1.86.27s1,.11,1.57.17a4,4,0,0,1,1,.24A3.11,3.11,0,0,1,77.4,55Z"/><path class="cls-2" d="M77.16,59.77a4.31,4.31,0,0,1-2.37,2.15,19.08,19.08,0,0,1-3.57,1.45,54.09,54.09,0,0,1-13.79,2.14c-3.07.12-6.15.08-9.22,0-.75,0-1.54,0-2.3-.06a6,6,0,0,1-1.79-.68,12.47,12.47,0,0,0-3.89-1.46,10.43,10.43,0,0,0-3.9.59,40.15,40.15,0,0,1-9.26,1.68,20.64,20.64,0,0,1-5.08-.4c-1.38-.29-3.35-.71-4.42-1.68a9.87,9.87,0,0,1-1.7-2.06,2.36,2.36,0,0,1-.46-1.14c0-.56,0-1.13,0-1.69a7.52,7.52,0,0,1,.28-2.37,3.62,3.62,0,0,1,.33-.81,1.08,1.08,0,0,1,.41-.38A2.7,2.7,0,0,1,18.1,55c1.93.39,3.79,1,5.73,1.32,2.24.32,4.52.14,6.78.25A43.49,43.49,0,0,1,39.23,58a31.72,31.72,0,0,1,4.47,1.5c.13-.09.26-.18.4-.26A12.87,12.87,0,0,1,46.93,58a8.85,8.85,0,0,1,5.29-.11,20.71,20.71,0,0,1,3.38,1.65,9.3,9.3,0,0,0,3,1.12,11.78,11.78,0,0,0,3.4-.16,3.07,3.07,0,0,0,1.65-.61c.54-.48.75-1.18,1.47-1.44s1.44-.54,2.17-.77a40.08,40.08,0,0,1,5.6-1.46,16.32,16.32,0,0,1,2-.22,6.81,6.81,0,0,1,1.86,0,1,1,0,0,1,.3.12.53.53,0,0,1,.12.1c.26.29.19,1.06.27,1.43A3.82,3.82,0,0,1,77.16,59.77Z"/><path class="cls-2" d="M45.28,38.74s-1.57.12-3.34,3.34"/><path class="cls-2" d="M49,41.5s-1.57.12-3.34,3.34"/><path class="cls-2" d="M52.82,44.45s-1.57.12-3.34,3.34"/><path class="cls-2" d="M56.59,47s-1.56.13-3.34,3.35"/></g></g></svg>