<svg xmlns="http://www.w3.org/2000/svg" viewBox="0 0 82.46 82.46"><defs><style>.cls-1{fill:none;}.cls-2{fill:#fff;stroke:#b5b5b5;stroke-linecap:round;stroke-linejoin:round;stroke-width:1.3px;}</style></defs><g id="레이어_2" data-name="레이어 2"><g id="Layer_1" data-name="Layer 1"><rect class="cls-1" width="82.46" height="82.46"/><line class="cls-2" x1="38.43" y1="18.28" x2="64.18" y2="44.03"/><line class="cls-2" x1="42.28" y1="14.43" x2="68.03" y2="40.18"/><line class="cls-2" x1="47.4" y1="11.86" x2="70.61" y2="35.06"/><line class="cls-2" x1="53.43" y1="10.19" x2="72.28" y2="29.03"/><line class="cls-2" x1="34.58" y1="22.13" x2="60.33" y2="47.88"/><line class="cls-2" x1="32" y1="27.25" x2="55.21" y2="50.46"/><line class="cls-2" x1="30.33" y1="33.29" x2="49.18" y2="52.13"/><line class="cls-2" x1="69.85" y1="12.61" x2="32.76" y2="49.71"/><line class="cls-2" x1="71.25" y1="18.94" x2="39.08" y2="51.11"/><line class="cls-2" x1="72.78" y1="25.14" x2="45.29" y2="52.64"/><line class="cls-2" x1="63.52" y1="11.21" x2="31.35" y2="43.38"/><line class="cls-2" x1="57.32" y1="9.68" x2="29.82" y2="37.18"/><polygon class="cls-2" points="28.55 58.13 24.33 53.91 29.93 45.56 36.9 52.53 28.55 58.13"/><path class="cls-2" d="M69.85,12.61c-8-8-22.76-6.15-33,4.09s-12.08,25-4.09,33,22.76,6.15,33-4.1S77.83,20.6,69.85,12.61ZM36.08,46.39c-6.14-6.14-4.31-18,4.09-26.37S60.39,9.79,66.53,15.93s4.3,18-4.09,26.36S42.22,52.53,36.08,46.39Z"/><path class="cls-2" d="M14.67,52.38h6a0,0,0,0,1,0,0V75.09a2.14,2.14,0,0,1-2.14,2.14H16.81a2.14,2.14,0,0,1-2.14-2.14V52.38A0,0,0,0,1,14.67,52.38Z" transform="translate(51 6.5) rotate(45)"/></g></g></svg>