<svg xmlns="http://www.w3.org/2000/svg" viewBox="0 0 92.12 12.55"><defs><style>.cls-1{fill:#4d61ac;}</style></defs><g id="레이어_2" data-name="레이어 2"><g id="레이어_1-2" data-name="레이어 1"><path class="cls-1" d="M91.47,4.21a.74.74,0,0,1,.61.52.8.8,0,0,1-.2.83l-2.59,2.5.61,3.58a.69.69,0,0,1-.17.64.76.76,0,0,1-.59.27.82.82,0,0,1-.37-.1l-3.21-1.67-3.21,1.67a.75.75,0,0,1-.36.1.76.76,0,0,1-.59-.27.66.66,0,0,1-.17-.64L81.84,8l-2.6-2.5a.78.78,0,0,1-.2-.81.75.75,0,0,1,.62-.52l3.6-.53L84.85.44a.79.79,0,0,1,1.42,0l1.6,3.24ZM88.06,7.87a.48.48,0,0,1,.12-.37l2.33-2.26L87.3,4.78A.34.34,0,0,1,87,4.56L85.56,1.67,84.12,4.58a.34.34,0,0,1-.3.2l-3.18.46,2.3,2.26a.57.57,0,0,1,.12.37l-.56,3.18,2.89-1.52a.4.4,0,0,1,.34,0l2.9,1.52Z"/><path class="cls-1" d="M71.47,4.21a.74.74,0,0,1,.61.52.8.8,0,0,1-.2.83l-2.59,2.5.61,3.58a.69.69,0,0,1-.17.64.76.76,0,0,1-.59.27.82.82,0,0,1-.37-.1l-3.21-1.67-3.21,1.67a.75.75,0,0,1-.36.1.76.76,0,0,1-.59-.27.66.66,0,0,1-.17-.64L61.84,8l-2.6-2.5a.78.78,0,0,1-.2-.81.75.75,0,0,1,.62-.52l3.6-.53L64.85.44a.79.79,0,0,1,1.42,0l1.6,3.24ZM68.06,7.87a.48.48,0,0,1,.12-.37l2.33-2.26L67.3,4.78A.34.34,0,0,1,67,4.56L65.56,1.67,64.12,4.58a.34.34,0,0,1-.3.2l-3.18.46,2.3,2.26a.57.57,0,0,1,.12.37l-.56,3.18,2.89-1.52a.4.4,0,0,1,.34,0l2.9,1.52Z"/><path class="cls-1" d="M52.47,4.21a.74.74,0,0,1,.61.52.8.8,0,0,1-.2.83l-2.59,2.5.61,3.58a.69.69,0,0,1-.17.64.76.76,0,0,1-.59.27.82.82,0,0,1-.37-.1l-3.21-1.67-3.21,1.67a.75.75,0,0,1-.36.1.76.76,0,0,1-.59-.27.66.66,0,0,1-.17-.64L42.84,8l-2.6-2.5a.78.78,0,0,1-.2-.81.75.75,0,0,1,.62-.52l3.6-.53L45.85.44a.79.79,0,0,1,1.42,0l1.6,3.24ZM49.06,7.87a.48.48,0,0,1,.12-.37l2.33-2.26L48.3,4.78A.34.34,0,0,1,48,4.56L46.56,1.67,45.12,4.58a.34.34,0,0,1-.3.2l-3.18.46,2.3,2.26a.57.57,0,0,1,.12.37l-.56,3.18,2.89-1.52a.4.4,0,0,1,.34,0l2.9,1.52Z"/><path class="cls-1" d="M32.47,4.21a.74.74,0,0,1,.61.52.8.8,0,0,1-.2.83l-2.59,2.5.61,3.58a.69.69,0,0,1-.17.64.76.76,0,0,1-.59.27.82.82,0,0,1-.37-.1l-3.21-1.67-3.21,1.67a.75.75,0,0,1-1-.17.66.66,0,0,1-.17-.64L22.84,8l-2.6-2.5a.78.78,0,0,1-.2-.81.75.75,0,0,1,.62-.52l3.6-.53L25.85.44a.79.79,0,0,1,1.42,0l1.6,3.24ZM29.06,7.87a.48.48,0,0,1,.12-.37l2.33-2.26L28.3,4.78A.34.34,0,0,1,28,4.56L26.56,1.67,25.12,4.58a.34.34,0,0,1-.3.2l-3.18.46,2.3,2.26a.57.57,0,0,1,.12.37l-.56,3.18,2.89-1.52a.4.4,0,0,1,.34,0l2.9,1.52Z"/><path class="cls-1" d="M12.47,4.21a.74.74,0,0,1,.61.52.8.8,0,0,1-.2.83l-2.59,2.5.61,3.58a.69.69,0,0,1-.17.64.78.78,0,0,1-.59.27.82.82,0,0,1-.37-.1L6.56,10.78,3.35,12.45a.75.75,0,0,1-1-.17.66.66,0,0,1-.17-.64L2.84,8,.24,5.54A.78.78,0,0,1,0,4.73a.75.75,0,0,1,.62-.52l3.6-.53L5.85.44a.79.79,0,0,1,1.42,0l1.6,3.24ZM9.06,7.87a.48.48,0,0,1,.12-.37l2.33-2.26L8.3,4.78A.34.34,0,0,1,8,4.56L6.56,1.67,5.12,4.58a.34.34,0,0,1-.3.2l-3.18.46L3.94,7.5a.57.57,0,0,1,.12.37L3.5,11.05,6.39,9.53a.4.4,0,0,1,.34,0l2.9,1.52Z"/></g></g></svg>